<?xml version="1.0" encoding="utf-8"?>
<svg viewBox="0 0 500 500" xmlns="http://www.w3.org/2000/svg" xmlns:bx="https://boxy-svg.com">
  <defs>
    <bx:grid x="0" y="0" width="21.482" height="20.08"/>
  </defs>
  <ellipse style="fill: rgb(143, 127, 102);" cx="250" cy="250" rx="221.503" ry="189.686"/>
  <ellipse style="stroke: rgb(143, 127, 102); fill: rgb(143, 127, 102);" cx="79.016" cy="118" rx="41.019" ry="42.314"/>
  <ellipse style="stroke: rgb(143, 127, 102); fill: rgb(143, 127, 102);" cx="418.535" cy="116.705" rx="41.883" ry="41.019"/>
  <path d="M 155.44 206.524 C 155.44 218.447 145.194 228.113 132.556 228.113 C 119.918 228.113 109.672 218.447 109.672 206.524 C 109.672 194.601 119.918 184.935 132.556 184.935 C 145.194 184.935 155.44 194.601 155.44 206.524 Z" style="stroke: rgb(0, 0, 0); fill: rgb(17, 15, 15);"/>
  <ellipse style="fill: rgb(216, 216, 216); stroke: rgb(0, 0, 0);"/>
  <ellipse style="stroke: rgb(0, 0, 0); fill: rgb(26, 24, 24);" cx="360.535" cy="206.524" rx="22.884" ry="21.589"/>
  <ellipse style="fill: rgb(255, 255, 255); transform-box: fill-box; transform-origin: 50% 50%;" cx="127.375" cy="204.365" rx="7.397" ry="8.494" transform="matrix(-0.988213, -0.153087, 0.1521, -0.988366, -0.201177, -1.323547)"/>
  <ellipse style="stroke: rgb(0, 0, 0); fill: rgb(255, 255, 255);" cx="368.078" cy="204.365" rx="8.574" ry="9.068"/>
  <path style="fill: rgb(103, 87, 64);" d="M 86.356 127.94 C 91.565 126.66 69.714 118.534 65.748 116.852 C 60.87 116.137 59.263 96.448 66.867 96.244 C 67.216 92.181 82.058 95.971 82.038 103.761 C 82.038 108.958 86.356 129.104 86.356 127.94 Z"/>
  <path style="fill: rgb(103, 87, 64); transform-box: fill-box; transform-origin: 50% 50%;" d="M 434.473 94.642 C 439.682 95.922 417.831 104.048 413.865 105.73 C 408.987 106.445 407.38 126.134 414.984 126.338 C 415.333 130.401 430.175 126.611 430.155 118.821 C 430.155 113.624 434.473 93.478 434.473 94.642 Z" transform="matrix(-1, 0, 0, -1, 0.000048, -0.000022)"/>
  <line style="fill: rgb(216, 216, 216); stroke-width: 9px; stroke-linecap: round; stroke: rgb(96, 87, 59);" x1="180.153" y1="100.532" x2="207.698" y2="146.68"/>
  <path style="fill: rgb(216, 216, 216); stroke-width: 9px; stroke-linecap: round; stroke: rgb(96, 87, 59); transform-box: fill-box; transform-origin: 50% 50%;" d="M 226.683 98.418 C 226.154 97.273 247.637 130.306 254.228 144.566" transform="matrix(0.866026, 0.499999, -0.499999, 0.866026, 0.000004, -0.000005)"/>
  <path style="fill: rgb(216, 216, 216); stroke-width: 9px; stroke-linecap: round; stroke: rgb(96, 87, 59); transform-box: fill-box; transform-origin: 50% 50%;" d="M 272.455 146.68 L 300 100.532" transform="matrix(-1, 0, 0, -1, 0.000007, -0.000008)"/>
  <ellipse style="fill: rgb(249, 234, 200); stroke-linecap: round; stroke-miterlimit: 8.85; stroke-linejoin: round; stroke-width: 3px;" cx="248.448" cy="344.016" rx="161.294" ry="97.933"/>
  <path d="M 213.724 -264.818 Q 249.127 -301.524 283.416 -264.818 L 283.416 -264.818 Q 317.704 -228.113 248.012 -228.113 L 248.012 -228.113 Q 178.32 -228.113 213.724 -264.818 Z" style="fill: rgb(87, 66, 52);" transform="matrix(1, 0, 0, -1, 0, 0)" bx:shape="triangle 178.32 -301.524 139.384 73.411 0.508 0.5 1@321788e6"/>
  <ellipse style="fill: rgb(255, 253, 253);" cx="249.881" cy="239.905" rx="24.449" ry="4.872"/>
  <path style="fill: rgba(143, 127, 102, 0); stroke-linecap: round; stroke-linejoin: round; stroke-width: 5px; stroke: rgb(78, 61, 50);" d="M 249.631 283.171 C 250.7 292.992 248.03 300.393 246.451 308.161 C 236.701 356.144 184.405 365.483 155.44 322.377"/>
  <path style="fill: rgba(143, 127, 102, 0); stroke-linecap: round; stroke-linejoin: round; stroke-width: 5px; transform-box: fill-box; transform-origin: 50% 50%; stroke: rgb(77, 61, 52);" d="M 344.419 362.31 C 349.542 291.824 290.383 273.907 256.729 323.991" transform="matrix(-1, 0, 0, -1, -6.216248, -12.331131)"/>
  <ellipse style="fill: rgb(235, 187, 226);" cx="103.699" cy="274.315" rx="16.545" ry="8.856"/>
  <ellipse style="fill: rgb(235, 187, 226);" cx="393.197" cy="274.315" rx="16.545" ry="8.856"/>
  <path style="fill: rgb(216, 216, 216); stroke-linecap: round; stroke-miterlimit: 8.85; stroke-linejoin: round; stroke-width: 3px; stroke: rgb(64, 44, 32);" d="M 7.245 239.966 C 7.697 231.556 50.057 241.484 51.21 244.777 C 47.378 241.107 6.774 230.821 7.245 239.966 Z"/>
  <path style="fill: rgb(216, 216, 216); stroke-linecap: round; stroke-miterlimit: 8.85; stroke-linejoin: round; stroke-width: 3px; stroke: rgb(64, 44, 32); transform-box: fill-box; transform-origin: 50% 50%;" d="M 17.759 274.043 C 22.192 279.457 61.439 269.21 61.625 265.459 C 63.613 269.715 21.903 278.403 17.759 274.043 Z" transform="matrix(-1, 0, 0, -1, -10.483728, -1.546371)"/>
  <path style="fill: rgb(216, 216, 216); stroke-linecap: round; stroke-miterlimit: 8.85; stroke-linejoin: round; stroke-width: 3px; stroke: rgb(64, 44, 32); transform-box: fill-box; transform-origin: 50% 50%;" d="M 446.255 250.894 C 446.707 259.304 489.067 249.376 490.22 246.083 C 486.388 249.753 445.784 260.039 446.255 250.894 Z" transform="matrix(-1, 0, 0, -1, -0.000026, -0.000015)"/>
  <path style="fill: rgb(216, 216, 216); stroke-linecap: round; stroke-miterlimit: 8.85; stroke-linejoin: round; stroke-width: 3px; stroke: rgb(64, 44, 32); transform-origin: 468.218px 278.106px;" d="M 446.251 274.587 C 450.684 269.173 489.931 279.42 490.117 283.171 C 492.105 278.915 450.395 270.227 446.251 274.587 Z"/>
  <ellipse style="fill: rgb(255, 255, 255);" cx="141.293" cy="216.517" rx="2.924" ry="3.084"/>
  <ellipse style="fill: rgb(255, 255, 255);" cx="352.606" cy="215.653" rx="2.924" ry="3.084"/>
  <ellipse style="fill: rgb(21, 18, 18); stroke: rgb(91, 71, 62);" cx="135.529" cy="301.234" rx="0.102" ry="0.034"/>
  <ellipse style="fill: rgb(21, 18, 18); stroke: rgb(91, 71, 62);" cx="133.487" cy="303.684" rx="0.102" ry="0.034"/>
  <ellipse style="fill: rgb(21, 18, 18); stroke: rgb(91, 71, 62);" cx="138.04" cy="303.752" rx="0.102" ry="0.034"/>
  <ellipse style="fill: rgb(21, 18, 18); stroke: rgb(91, 71, 62);" cx="135.733" cy="306.099" rx="0.102" ry="0.034"/>
  <path d="M 329.064 286.439 C 329.17 286.426 329.292 286.445 329.38 286.484 C 329.462 286.521 329.535 286.579 329.583 286.657 C 329.637 286.743 329.676 286.886 329.673 286.988 C 329.671 287.081 329.624 287.178 329.583 287.244 C 329.548 287.3 329.521 287.338 329.455 287.372 C 329.364 287.419 329.154 287.461 329.049 287.462 C 328.973 287.462 328.927 287.447 328.869 287.417 C 328.804 287.383 328.728 287.333 328.681 287.259 C 328.625 287.173 328.568 287.026 328.575 286.913 C 328.583 286.798 328.644 286.653 328.726 286.574 C 328.807 286.496 328.952 286.453 329.064 286.439 Z M 329.26 291.824 C 329.366 291.811 329.487 291.83 329.576 291.869 C 329.658 291.906 329.73 291.965 329.779 292.042 C 329.832 292.128 329.872 292.272 329.869 292.373 C 329.866 292.466 329.82 292.563 329.779 292.629 C 329.744 292.685 329.716 292.723 329.651 292.757 C 329.56 292.804 329.35 292.846 329.245 292.847 C 329.169 292.848 329.123 292.832 329.064 292.802 C 328.999 292.768 328.924 292.718 328.876 292.644 C 328.821 292.558 328.764 292.412 328.771 292.298 C 328.778 292.183 328.839 292.039 328.921 291.96 C 329.003 291.881 329.148 291.838 329.26 291.824 Z M 325.815 289.147 C 325.911 289.138 326.032 289.155 326.116 289.192 C 326.193 289.226 326.256 289.276 326.304 289.35 C 326.36 289.436 326.411 289.591 326.409 289.696 C 326.408 289.789 326.36 289.885 326.319 289.951 C 326.284 290.008 326.256 290.045 326.191 290.079 C 326.102 290.126 325.902 290.169 325.8 290.17 C 325.725 290.17 325.678 290.155 325.62 290.124 C 325.554 290.091 325.479 290.04 325.432 289.966 C 325.376 289.88 325.325 289.725 325.326 289.621 C 325.327 289.527 325.376 289.431 325.416 289.365 C 325.451 289.308 325.487 289.272 325.544 289.237 C 325.613 289.195 325.721 289.155 325.815 289.147 Z M 333.381 289.091 C 333.484 289.072 333.61 289.088 333.697 289.121 C 333.775 289.15 333.837 289.203 333.885 289.264 C 333.935 289.326 333.974 289.414 333.991 289.49 C 334.007 289.56 334.016 289.624 333.991 289.7 C 333.959 289.798 333.872 289.952 333.773 290.024 C 333.673 290.095 333.496 290.125 333.396 290.129 C 333.322 290.131 333.274 290.114 333.216 290.084 C 333.151 290.05 333.076 290 333.028 289.926 C 332.972 289.839 332.916 289.693 332.923 289.58 C 332.93 289.465 332.995 289.323 333.073 289.241 C 333.149 289.162 333.276 289.11 333.381 289.091 Z" style="stroke: rgb(91, 71, 62); fill: rgb(111, 89, 89); paint-order: fill; stroke-width: 0px; stroke-linecap: round;"/>
  <ellipse style="fill: rgb(21, 18, 18); stroke: rgb(91, 71, 62);" cx="333.401" cy="289.553" rx="0.102" ry="0.034"/>
  <ellipse style="fill: rgb(21, 18, 18); stroke: rgb(91, 71, 62);" cx="329.249" cy="292.321" rx="0.102" ry="0.034"/>
  <ellipse style="fill: rgb(21, 18, 18); stroke: rgb(91, 71, 62);" cx="325.843" cy="289.659" rx="0.102" ry="0.034"/>
</svg>